General
Complete name                    : C:Documents and SettingsIkBureaubladEarthlings - DVDrip [AC-3 2.0] (Shockumentary 2003 XviD).avi
Format                           : AVI
Format/Info                      : Audio Video Interleave
File size                        : 898 MiB
Duration                         : 1h 35mn
Overall bit rate                 : 1 314 Kbps
Movie name                       : DVD_VOLUME.Title1.DVDRip
Director                         : Ik
Writing application              : Lavf51.19.0
Original source form/Name        : DVD_VOLUME

Video
Format                           : MPEG-4 Visual
Format profile                   : Simple@L3
Format settings, BVOP            : No
Format settings, QPel            : No
Format settings, GMC             : No warppoints
Format settings, Matrix          : Default (H.263)
Codec ID                         : XVID
Codec ID/Hint                    : XviD
Duration                         : 1h 35mn
Bit rate                         : 1 078 Kbps
Width                            : 640 pixels
Height                           : 480 pixels
Display aspect ratio             : 4/3
Frame rate                       : 29.970 fps
Resolution                       : 24 bits
Colorimetry                      : 4:2:0
Scan type                        : Progressive
Bits/(Pixel*Frame)               : 0.117
Stream size                      : 737 MiB (82%)
Writing library                  : XviD 1.1.2 (UTC 2006-11-01)

Audio
Format                           : AC-3
Format/Info                      : Audio Coding 3
Codec ID                         : 2000
Duration                         : 1h 35mn
Bit rate mode                    : Constant
Bit rate                         : 224 Kbps
Channel(s)                       : 2 channels
Channel positions                : L R
Sampling rate                    : 48.0 KHz
Stream size                      : 153 MiB (17%)
Alignment                        : Aligned on interleaves
Interleave, duration             : 32 ms (0.96 video frame)
Interleave, preload duration     : 32 ms

Verenigde Staten
Documentaire
95 minuten

geregisseerd door Shaun Monson
met de stem van Joaquin Phoenix

Earthlings is een documentaire over het houden van dieren en de afhankelijkheid van de mens van dieren voor voedsel, kleding, entertainment en voor experimenten op dieren. In een uitgebreide studie naar dierenwinkels, 'puppy mills' en asielen, de bio-industrie, de leer- en bonthandel, de sport- en entertainmentindustrie, en uiteindelijk de medische wereld en wetenschap, gebruikt Earthlings verborgen camera's en nog niet eerder vertoond beeldmateriaal om de dagelijkse gang van zaken in enkele van de grootste industrieën ter wereld die dieren vanuit een winstoogmerk gebruiken, in beeld te brengen. Deze tocht langs verschillende uitingen van de verhouding tussen mens en dier roept vragen op over onderwerpen als dierenrechten, de bio-industrie en vivisectie, zonder hier direct een antwoord op te geven of de kijker hierover een mening op te dringen.